<svg xmlns="http://www.w3.org/2000/svg" width="32" height="32" viewBox="0 0 24 24" fill="none" stroke="currentColor" stroke-width="2" stroke-linecap="round" stroke-linejoin="round">
  <circle cx="12" cy="10" r="2"></circle>
  <path d="M12 12v8l-4-2"></path>
  <path d="M8 10V7a4 4 0 0 1 8 0v3"></path>
  <path d="M8 21v-1a2 2 0 0 1 2-2h4a2 2 0 0 1 2 2v1"></path>
  <path d="M20 12c0 1.7-1.3 3-3 3s-3-1.3-3-3 1.3-3 3-3 3 1.3 3 3"></path>
  <path d="M4 12c0 1.7 1.3 3 3 3s3-1.3 3-3-1.3-3-3-3-3 1.3-3 3"></path>
</svg>